<?xml version="1.0" encoding="utf-8"?>
<!-- Generator: Adobe Illustrator 16.0.0, SVG Export Plug-In . SVG Version: 6.00 Build 0)  -->
<!DOCTYPE svg PUBLIC "-//W3C//DTD SVG 1.0//EN" "http://www.w3.org/TR/2001/REC-SVG-20010904/DTD/svg10.dtd">
<svg version="1.0" xmlns="http://www.w3.org/2000/svg" xmlns:xlink="http://www.w3.org/1999/xlink" x="0px" y="0px" width="19px"
	 height="19px" viewBox="0 0 19 19" enable-background="new 0 0 19 19" xml:space="preserve">
<g>
</g>
<g id="Layer_3">
</g>
<g id="Layer_4">
	<g>
		<path d="M9.5,0C4.262,0,0,4.262,0,9.5S4.262,19,9.5,19S19,14.738,19,9.5S14.738,0,9.5,0z M7.362,16.686
			C4.265,15.762,2,12.893,2,9.5c0-0.709,0.105-1.394,0.291-2.045c0.181,0.434,0.342,0.965,0.5,1.466
			C2.957,9.45,3.36,9.38,3.624,9.714c0.264,0.333,0.236,0.819,0.723,1.112c0.486,0.291,0.625,0.083,0.889,0.193
			c0.264,0.112,0.333,0.433,0.723,0.598c0.389,0.167,0.514,0.208,0.5,0.473c-0.013,0.265-0.208,0.681,0.098,1.404
			c0.305,0.722,0.432,0.694,0.654,0.902c0.223,0.21,0.138,0.613,0.138,0.696c0,0,0.014,0.803,0.052,1.157
			C7.418,16.426,7.384,16.564,7.362,16.686z M16.341,10.242c-0.389-0.427-0.243-0.048-0.521-0.159
			c-0.276-0.113-0.653-0.026-0.908-0.004c-0.254,0.021-0.332-0.064-0.432-0.106c-0.098-0.042-0.32-0.137-0.331-0.333
			c-0.011-0.194-0.322-0.309-0.774-0.245c-0.453,0.062-0.377,0.136-0.785,0.178c-0.409,0.043-0.532,0.317-0.532,0.317
			c-0.655,0.609-0.962,1.285-1.063,1.748c-0.1,0.463,0.155,0.789,0.433,1.231c0.274,0.441,0.563,0.336,1.229,0.305
			c0.662-0.03,0.408-0.199,0.785-0.147c0.377,0.054,0.587,0.591,0.587,0.591s0.53,0.41,0.53,0.483c0,0.02,0.053,0.07,0.122,0.13
			H14.68c0,0,0.003,0.002,0.004,0.003c0.005,0.004,0.009,0.007,0.014,0.012c0.023,0.023,0.055,0.087-0.018,0.255
			c-0.09,0.208-0.164,0.336-0.172,0.567C13.18,16.266,11.426,17,9.5,17c-0.304,0-0.602-0.023-0.896-0.059
			c0.109-0.209,0.297-0.277,0.355-0.441c0.143-0.409,0.52-1.182,0.538-1.206c0.038-0.033,0.062-0.056,0.104-0.092
			c0.57-0.485,0.167-0.332,0.459-0.638c0.29-0.308,0.472-0.765,0.541-1.209c0.07-0.445-0.527-0.46-1.293-0.625
			c-0.763-0.167-0.125-0.098-0.667-0.738c-0.542-0.638-0.778-0.389-1.403-0.54c-0.625-0.154-0.653,0.248-0.875,0.151
			s-0.195-0.278-0.39-0.5c-0.194-0.223,0.139-0.182-0.027-0.585c-0.167-0.401-0.917,0.153-1.167-0.317
			c-0.25-0.474,0.028-0.376,0.347-0.433c0.32-0.055,0.625,0.126,0.987,0C6.473,9.644,6.292,9.38,6.458,9.143
			c0.168-0.235,0.307-0.805,0.723-0.917C7.599,8.115,7.655,7.99,7.974,7.712c0.32-0.278,0.625-0.07,0.764-0.333
			c0.139-0.265-0.056-0.348-0.305-0.598c-0.25-0.25-0.25-0.223-0.375-0.57C7.932,5.863,7.724,6.086,7.46,5.988
			C7.196,5.891,7.084,5.947,6.779,5.836C6.473,5.725,6.612,6.113,6.445,6.447c-0.167,0.333-0.389,0.111-0.64,0.069
			C5.556,6.475,5.139,6.184,5.25,5.814c0.11-0.369,0.416-0.409,0.667-0.59c0.25-0.179,0.223-0.277,0.36-0.514
			c0.139-0.236,0.334,0.111,0.583,0.376C7.113,5.35,6.946,5.419,7.015,5.544c0.069,0.125,0.583,0.306,0.75,0.264
			c0.167-0.042,0-0.236,0.167-0.542C8.099,4.96,7.835,5.002,7.696,4.808c-0.139-0.195-0.612-0.325-0.75-0.491
			c-0.039-0.047-0.11,0.01-0.19,0.01c-0.206,0-0.478-0.288-0.478-0.288L6.096,3.935C6.078,3.909,6.059,3.855,6.043,3.825
			C5.813,3.388,6.25,3.65,5.583,3.198C5.565,3.185,5.552,3.167,5.534,3.154c0.572-0.358,1.192-0.647,1.854-0.842
			C7.384,2.537,7.418,2.989,7.418,2.989s-0.083,0.234,0,0.305C7.501,3.363,7.709,3.21,8.044,3.516c0.333,0.306,0.75,0.25,0.75,0.777
			c0,0.528,0.139,0.806,0.444,1.279c0.306,0.472,0.32,0.68,0.57,0.319c0.251-0.36,0.166-0.597,0.5-0.736
			c0.333-0.139,0.599-0.098,0.987-0.418c0.389-0.318,0.249,0.056,0.416-0.528c0.168-0.583,0.236-0.597,0.251-1.028
			c0.01-0.28,0.048-0.557,0.074-0.726c1.164,0.42,2.193,1.115,3.01,2.014c-0.35,0.09-0.545-0.003-0.636,0.271
			c-0.106,0.315-0.245,0.536-0.304,0.631s-0.308,0.31-0.436,0.411c0,0-0.165,0.042-0.187,0.294c-0.023,0.252-0.122,0.463,0.187,0.4
			c0.311-0.063,0.478-0.235,0.521-0.085c0.045,0.148,0.112,0.411,0.299,0.411s0.133-0.041,0.238-0.242
			c0.104-0.2,0.426-0.263,0.325-0.484c-0.099-0.222-0.265-0.167-0.121-0.294c0.145-0.126,0.133-0.053,0.276-0.275
			c0.146-0.222,0.222-0.379,0.365-0.241c0.146,0.137,0.199,0.178,0,0.284c-0.198,0.106-0.409,0.433-0.319,0.527
			c0.089,0.095,0.209,0.126,0.387,0.052c0.177-0.074,0.431-0.085,0.442,0.022c0.012,0.105-0.266,0.095-0.266,0.095
			s-0.005,0.009-0.007,0.012L15.71,6.246c0,0-0.144,0-0.222,0.148c-0.076,0.146-0.078,0.272-0.199,0.388
			c-0.122,0.117,0.045,0.2-0.3,0.243c-0.343,0.042-0.618,0.094-0.684,0.074c-0.067-0.022-0.206-0.127-0.198-0.274
			c0.01-0.147-0.112-0.342-0.234-0.15c-0.123,0.192-0.101,0.348-0.111,0.428c-0.012,0.08-0.266,0.091-0.443,0.281
			c-0.176,0.188-0.221,0.263-0.375,0.337c-0.155,0.073-0.21-0.011-0.377,0.115c-0.166,0.127-0.044,0.265,0,0.379
			c0.044,0.115,0.245,0.284,0.044,0.359c-0.199,0.073-0.608-0.075-0.729,0.125c-0.123,0.2,0.033,0.525,0.066,0.679
			c0.032,0.154,0.222,0.269,0.52,0.154c0.299-0.116,0.267-0.126,0.389-0.285c0.12-0.158,0.253-0.453,0.353-0.548
			c0.1-0.094-0.078-0.02,0.377-0.125s0.722,0,0.826,0.336c0.104,0.337,0.136,0.727,0.325,0.58c0.188-0.148,0.322-0.201,0.199-0.432
			c-0.122-0.231-0.365-0.474-0.257-0.569c0.112-0.095,0.467,0.074,0.467,0.327c0,0.253,0.132,0.38,0.276,0.411
			c0.145,0.031,0.344,0.084,0.742,0.21c0.398,0.126,0.365-0.013,0.676-0.059c0.068-0.01,0.114-0.014,0.153-0.017
			C16.994,9.407,17,9.453,17,9.5c0,0.5-0.052,0.987-0.145,1.46C16.743,10.557,16.689,10.625,16.341,10.242z"/>
		<path d="M12.178,7.415c0.135-0.103,0.059-0.238,0.167-0.333c0.108-0.095,0.125-0.031,0.116,0.047
			c-0.008,0.08,0.076,0.239,0.033,0.348c-0.041,0.109-0.05,0.212,0.183,0.165c0.233-0.047,0.356-0.15,0.415-0.237
			c0.058-0.087,0.134-0.19,0-0.26c-0.132-0.072-0.239-0.025-0.239-0.222c0-0.197-0.066-0.165-0.101-0.378
			c-0.033-0.214-0.036-0.36-0.174-0.358c0,0-0.333,0.153-0.316,0.342s0.064,0.307-0.001,0.331s-0.19,0.007-0.289,0.135
			c-0.101,0.125-0.165,0.229-0.097,0.395C11.94,7.557,12.046,7.516,12.178,7.415z"/>
	</g>
</g>
<g>
	<g>
		<g>
			<path fill="#010101" d="M5.329,23.147v-1.903h0.799h0.072c0.215,0,0.361,0.042,0.439,0.124c0.078,0.083,0.117,0.237,0.117,0.464
				c0,0.218-0.041,0.367-0.122,0.445c-0.081,0.079-0.234,0.118-0.458,0.118l-0.084,0.001h-0.55v0.751H5.329z M5.543,22.216h0.509
				c0.213,0,0.35-0.021,0.409-0.065c0.061-0.043,0.09-0.144,0.09-0.302c0-0.183-0.021-0.3-0.061-0.349
				c-0.041-0.049-0.137-0.073-0.288-0.073l-0.083-0.002H5.543V22.216z"/>
			<path fill="#010101" d="M7.229,21.244v1.903H7.014v-1.903H7.229z"/>
			<path fill="#010101" d="M9.041,21.244l-0.608,0.918l0.654,0.985H8.833l-0.44-0.667l-0.07-0.104
				c-0.003-0.006-0.014-0.023-0.032-0.053l-0.034-0.053H8.252l-0.034,0.055c-0.019,0.027-0.03,0.045-0.035,0.053l-0.072,0.106
				l-0.448,0.662H7.4l0.681-0.985l-0.626-0.918h0.259l0.422,0.635l0.059,0.089c0.007,0.011,0.017,0.026,0.029,0.044l0.028,0.046
				h0.005l0.028-0.044c0.015-0.025,0.024-0.04,0.028-0.044l0.057-0.088l0.417-0.638H9.041z"/>
			<g>
				<path fill="#010101" d="M11.22,22.148c-0.09-0.07-0.284-0.111-0.595-0.124c-0.329-0.016-0.41-0.047-0.43-0.06
					c-0.012-0.008-0.052-0.049-0.052-0.236c0-0.079,0.013-0.182,0.071-0.217c0.039-0.024,0.142-0.053,0.408-0.053
					c0.23,0,0.304,0.032,0.326,0.051c0.021,0.018,0.057,0.072,0.057,0.25v0.054h0.322V21.76c0-0.242-0.051-0.397-0.151-0.477
					c-0.097-0.076-0.29-0.113-0.589-0.113c-0.295,0-0.49,0.04-0.595,0.121c-0.11,0.083-0.162,0.24-0.162,0.476
					c0,0.34,0.185,0.532,0.534,0.556l0.436,0.022c0.143,0.009,0.191,0.038,0.207,0.054s0.041,0.062,0.041,0.193
					c0,0.219-0.043,0.274-0.063,0.288c-0.026,0.02-0.116,0.052-0.423,0.052c-0.273,0-0.348-0.035-0.366-0.05
					c-0.017-0.015-0.058-0.069-0.058-0.276v-0.1H9.817l0.002,0.139c0,0.229,0.052,0.381,0.157,0.461
					c0.102,0.077,0.292,0.115,0.58,0.115c0.332,0,0.542-0.037,0.646-0.114c0.108-0.079,0.16-0.243,0.16-0.497
					C11.362,22.373,11.315,22.223,11.22,22.148z"/>
				<polygon fill="#010101" points="11.437,23.201 12.766,23.201 12.766,22.912 11.759,22.912 11.759,22.309 12.725,22.309 
					12.725,22.02 11.759,22.02 11.759,21.479 12.766,21.479 12.766,21.19 11.437,21.19 				"/>
				<path fill="#010101" d="M14.186,22.624c0,0.138-0.024,0.228-0.068,0.256c-0.031,0.02-0.128,0.052-0.444,0.052
					c-0.319,0-0.4-0.068-0.42-0.107c-0.029-0.059-0.063-0.264-0.063-0.917c0-0.279,0.05-0.358,0.081-0.382
					c0.032-0.024,0.144-0.066,0.529-0.066c0.21,0,0.279,0.033,0.301,0.053c0.021,0.019,0.057,0.076,0.057,0.257l0.002,0.11h0.321
					l-0.003-0.104c0-0.234-0.047-0.391-0.144-0.478c-0.096-0.085-0.269-0.127-0.526-0.127c-0.373,0-0.611,0.042-0.73,0.128
					c-0.102,0.075-0.166,0.161-0.188,0.26c-0.021,0.09-0.03,0.298-0.03,0.635c0,0.438,0.046,0.712,0.14,0.836
					c0.099,0.129,0.312,0.192,0.651,0.192c0.377,0,0.598-0.034,0.698-0.107c0.104-0.076,0.155-0.249,0.155-0.529v-0.127h-0.322
					L14.186,22.624z"/>
				<polygon fill="#010101" points="16.025,21.19 14.467,21.19 14.467,21.497 15.088,21.497 15.088,23.201 15.41,23.201 
					15.41,21.497 16.025,21.497 				"/>
				<path fill="#010101" d="M16.858,21.17c-0.327,0-0.548,0.05-0.673,0.152c-0.126,0.102-0.189,0.29-0.189,0.559l-0.003,0.314
					c0,0.454,0.047,0.732,0.144,0.849c0.1,0.119,0.336,0.177,0.722,0.177c0.388,0,0.624-0.059,0.722-0.179
					c0.096-0.117,0.143-0.401,0.143-0.872c0-0.438-0.05-0.707-0.149-0.822C17.472,21.229,17.238,21.17,16.858,21.17z M16.856,21.459
					c0.31,0,0.425,0.04,0.466,0.073c0.039,0.032,0.085,0.12,0.085,0.359l0.002,0.304c0,0.516-0.046,0.631-0.065,0.657
					c-0.019,0.024-0.102,0.079-0.487,0.079c-0.384,0-0.467-0.055-0.485-0.079c-0.02-0.026-0.065-0.142-0.065-0.657
					s0.046-0.631,0.065-0.656C16.39,21.516,16.473,21.459,16.856,21.459z"/>
				<path fill="#010101" d="M19.231,22.289c0.054-0.027,0.095-0.063,0.122-0.106c0.053-0.078,0.078-0.208,0.078-0.396
					c0-0.214-0.048-0.368-0.142-0.46c-0.096-0.092-0.249-0.136-0.47-0.136h-0.961v2.011h0.322V22.43h0.666
					c0.109,0,0.236,0.032,0.236,0.279v0.492h0.321v-0.54C19.405,22.453,19.327,22.345,19.231,22.289z M19.119,21.84
					c0,0.12-0.024,0.2-0.07,0.239c-0.033,0.028-0.113,0.062-0.301,0.062h-0.566v-0.661h0.642c0.167,0,0.224,0.036,0.242,0.059
					C19.085,21.562,19.119,21.633,19.119,21.84z"/>
			</g>
		</g>
		<g>
			<polygon fill="none" points="1.878,21.525 1.878,21.525 0.73,22.674 0.731,22.675 0.73,22.674 			"/>
			
				<rect x="1.488" y="22.301" transform="matrix(0.7067 0.7075 -0.7075 0.7067 16.3011 5.2821)" fill="none" width="0.584" height="0.002"/>
			<polygon fill="none" points="1.873,21.004 1.872,21.004 0.214,22.674 0.473,22.933 0.473,22.933 0.214,22.674 			"/>
			<path fill="#4FABE0" d="M4.262,21.797c-0.45-1.229-1.834-1.852-3.091-1.39c-1.257,0.46-1.911,1.829-1.46,3.059
				s1.835,1.852,3.092,1.391S4.713,23.025,4.262,21.797z M0.674,22.732l-0.058,0.057l-0.029,0.029L0.53,22.875l-0.058,0.058l0,0l0,0
				l-0.259-0.259l1.658-1.67h0.001h0l1.07,1.065l-0.185,0.187l-0.759,0.771L1.34,22.357v-0.001l-0.011,0.001l-0.015-0.004
				l0.258-0.259l0.001,0.001l0.001-0.001l0.413,0.413l0.435-0.438l-0.543-0.544L0.73,22.674l0.001,0.001L0.674,22.732z
				 M1.878,24.339l-1.07-1.07l0.257-0.26l0.813,0.813l1.206-1.206l0.199-0.202l0.26,0.26L1.878,24.339z"/>
			<polygon fill="#4FABE0" points="0.473,22.933 0.53,22.875 0.473,22.933 			"/>
			<polygon fill="#4FABE0" points="2.422,22.069 1.878,21.525 1.878,21.525 2.422,22.069 1.987,22.508 1.987,22.509 			"/>
			<polygon fill="#4FABE0" points="2.752,22.256 1.999,23.026 2.758,22.256 2.943,22.069 1.873,21.004 1.873,21.004 2.94,22.069 			
				"/>
			<polygon fill="#4FABE0" points="1.573,22.096 1.571,22.095 1.313,22.354 1.329,22.357 1.319,22.354 			"/>
		</g>
		<g>
			<path fill="#010101" d="M15.182,24.486v0.21h-0.176v-0.21H15.182z"/>
			<path fill="#010101" d="M16.216,24.302h0.16l0.002,0.06c0,0.234-0.154,0.352-0.46,0.352c-0.198,0-0.328-0.037-0.391-0.111
				c-0.064-0.074-0.096-0.227-0.096-0.458c0-0.216,0.033-0.364,0.097-0.441c0.065-0.078,0.188-0.116,0.369-0.116
				c0.178,0,0.299,0.026,0.363,0.078c0.065,0.053,0.097,0.151,0.097,0.295h-0.159v-0.028c0-0.085-0.021-0.142-0.063-0.169
				c-0.041-0.029-0.125-0.043-0.25-0.043c-0.121,0-0.199,0.026-0.232,0.08c-0.035,0.054-0.053,0.174-0.053,0.359
				c0,0.182,0.021,0.297,0.059,0.348c0.04,0.049,0.132,0.073,0.276,0.073c0.122,0,0.199-0.016,0.232-0.048
				C16.199,24.499,16.216,24.422,16.216,24.302z"/>
			<path fill="#010101" d="M17.053,23.586c0.203,0,0.334,0.035,0.395,0.105s0.09,0.223,0.09,0.458s-0.029,0.387-0.09,0.458
				c-0.061,0.07-0.191,0.105-0.395,0.105c-0.201,0-0.332-0.035-0.393-0.105c-0.061-0.071-0.091-0.223-0.091-0.458
				s0.03-0.388,0.091-0.458S16.852,23.586,17.053,23.586z M17.053,23.719c-0.143,0-0.229,0.023-0.263,0.069
				c-0.034,0.046-0.051,0.166-0.051,0.361s0.017,0.315,0.051,0.361c0.033,0.046,0.12,0.068,0.263,0.068s0.231-0.022,0.266-0.068
				s0.051-0.166,0.051-0.361s-0.017-0.315-0.051-0.361S17.195,23.719,17.053,23.719z"/>
			<path fill="#010101" d="M17.787,23.603h0.16l-0.004,0.164l0.004,0.003c0.062-0.122,0.18-0.184,0.357-0.184
				c0.186,0,0.298,0.062,0.338,0.184h0.004c0.068-0.122,0.194-0.184,0.377-0.184c0.258,0,0.387,0.132,0.387,0.396v0.715h-0.16v-0.73
				c0-0.096-0.018-0.161-0.052-0.196c-0.033-0.033-0.099-0.051-0.194-0.051c-0.127,0-0.213,0.023-0.258,0.072
				c-0.044,0.047-0.068,0.138-0.068,0.272v0.633h-0.159v-0.715l-0.003-0.051c0-0.142-0.08-0.212-0.24-0.212
				c-0.22,0-0.328,0.118-0.328,0.356v0.621h-0.16V23.603z"/>
		</g>
	</g>
</g>
</svg>
